# xmcd CD database file
#
# Track frame offsets:
#	150
#	20308
#	42770
#	60137
#	86916
#	103626
#	120869
#	130325
#	153533
#	167313
#	198716
#	215495
#
# Disc length: 3065 seconds
#
# Revision: 0
# Processed by: cddbd v1.5.2PL0 Copyright (c) Steve Scherf et al.
# Submitted via: CDex 1.70beta2
#
DISCID=940bf70c
DTITLE=カゲロウ - KAGERO III
DYEAR=1900
DGENRE=Jazz
TTITLE0=GAS
TTITLE1=LIBERTINE SPECIAL
TTITLE2=sheepless, but feel alright
TTITLE3=HYSTERIA
TTITLE4=YELLOW
TTITLE5=ONE DAY
TTITLE6=PAINKILLER
TTITLE7=MIST
TTITLE8=BLACK MIG
TTITLE9=a bird in the cage
TTITLE10=FRISBY AND THE MAD DOG
TTITLE11=DRILL LINER
EXTD=
EXTT0=
EXTT1=
EXTT2=
EXTT3=
EXTT4=
EXTT5=
EXTT6=
EXTT7=
EXTT8=
EXTT9=
EXTT10=
EXTT11=
PLAYORDER=
